<svg width="28" height="29" viewBox="0 0 28 29" fill="none" xmlns="http://www.w3.org/2000/svg">
<g clip-path="url(#clip0_2241_1041)">
<path d="M22.1666 10.8498H16.3333C14.7867 10.8516 13.3041 11.4668 12.2105 12.5604C11.117 13.6539 10.5018 15.1366 10.4999 16.6831V22.5165C10.5018 24.063 11.117 25.5456 12.2105 26.6392C13.3041 27.7328 14.7867 28.3479 16.3333 28.3498H22.1666C23.7131 28.3479 25.1958 27.7328 26.2894 26.6392C27.3829 25.5456 27.9981 24.063 27.9999 22.5165V16.6831C27.9981 15.1366 27.3829 13.6539 26.2894 12.5604C25.1958 11.4668 23.7131 10.8516 22.1666 10.8498ZM16.3333 17.8498C16.1025 17.8498 15.877 17.7814 15.6851 17.6532C15.4933 17.525 15.3437 17.3428 15.2554 17.1296C15.1671 16.9164 15.144 16.6818 15.189 16.4555C15.234 16.2292 15.3452 16.0213 15.5083 15.8582C15.6715 15.695 15.8794 15.5839 16.1057 15.5389C16.332 15.4939 16.5666 15.517 16.7797 15.6053C16.9929 15.6936 17.1751 15.8431 17.3033 16.035C17.4315 16.2268 17.4999 16.4524 17.4999 16.6831C17.4999 16.9925 17.377 17.2893 17.1582 17.5081C16.9394 17.7269 16.6427 17.8498 16.3333 17.8498ZM22.1666 23.6831C21.9359 23.6831 21.7103 23.6147 21.5184 23.4865C21.3266 23.3583 21.1771 23.1761 21.0888 22.9629C21.0004 22.7497 20.9773 22.5152 21.0224 22.2889C21.0674 22.0625 21.1785 21.8547 21.3417 21.6915C21.5048 21.5283 21.7127 21.4172 21.939 21.3722C22.1653 21.3272 22.3999 21.3503 22.6131 21.4386C22.8263 21.5269 23.0085 21.6764 23.1367 21.8683C23.2649 22.0602 23.3333 22.2857 23.3333 22.5165C23.3333 22.8259 23.2104 23.1226 22.9916 23.3414C22.7728 23.5602 22.476 23.6831 22.1666 23.6831ZM18.1999 6.18313L14.0804 2.05546C12.9857 0.963946 11.5028 0.351013 9.95686 0.351013C8.41092 0.351013 6.92805 0.963946 5.83328 2.05546L1.70561 6.18313C0.613385 7.27799 0 8.76137 0 10.3079C0 11.8544 0.613385 13.3378 1.70561 14.4326L5.83328 18.5498C6.4859 19.205 7.28601 19.6943 8.16661 19.9766V16.6831C8.16908 14.518 9.03029 12.4422 10.5613 10.9112C12.0923 9.38014 14.1681 8.51893 16.3333 8.51646H19.6314C19.3477 7.63541 18.8568 6.83525 18.1999 6.18313ZM5.83328 12.0165C5.60253 12.0165 5.37697 11.948 5.18511 11.8198C4.99325 11.6916 4.84372 11.5094 4.75542 11.2963C4.66712 11.0831 4.64401 10.8485 4.68903 10.6222C4.73404 10.3959 4.84516 10.188 5.00832 10.0248C5.17148 9.86168 5.37936 9.75056 5.60567 9.70554C5.83198 9.66053 6.06656 9.68363 6.27974 9.77193C6.49292 9.86024 6.67513 10.0098 6.80332 10.2016C6.93152 10.3935 6.99994 10.6191 6.99994 10.8498C6.99994 11.1592 6.87703 11.456 6.65823 11.6748C6.43944 11.8935 6.1427 12.0165 5.83328 12.0165ZM10.4999 7.34979C10.2692 7.34979 10.0436 7.28137 9.85178 7.15318C9.65992 7.02498 9.51039 6.84277 9.42208 6.62959C9.33378 6.41641 9.31068 6.18183 9.35569 5.95552C9.40071 5.72921 9.51183 5.52133 9.67499 5.35817C9.83815 5.19501 10.046 5.08389 10.2723 5.03888C10.4986 4.99386 10.7332 5.01697 10.9464 5.10527C11.1596 5.19357 11.3418 5.3431 11.47 5.53496C11.5982 5.72682 11.6666 5.95238 11.6666 6.18313C11.6666 6.49255 11.5437 6.78929 11.3249 7.00809C11.1061 7.22688 10.8094 7.34979 10.4999 7.34979Z" fill="#DC0000"/>
</g>
<defs>
<clipPath id="clip0_2241_1041">
<rect width="28" height="28" fill="white" transform="translate(0 0.349609)"/>
</clipPath>
</defs>
</svg>
